<?xml version="1.0" encoding="UTF-8"?>
<svg id="Layer_1" xmlns="http://www.w3.org/2000/svg" xmlns:xlink="http://www.w3.org/1999/xlink" version="1.1" viewBox="0 0 512 512">
  <!-- Generator: Adobe Illustrator 30.3.0, SVG Export Plug-In . SVG Version: 2.1.3 Build 182)  -->
  <defs>
    <style>
      .st0 {
        fill: url(#linear-gradient2);
      }

      .st1 {
        fill: url(#linear-gradient1);
      }

      .st2 {
        fill: url(#linear-gradient);
      }
    </style>
    <linearGradient id="linear-gradient" x1="14.04" y1="14.04" x2="543.06" y2="543.06" gradientUnits="userSpaceOnUse">
      <stop offset="0" stop-color="#203c73"/>
      <stop offset="1" stop-color="#4380c2"/>
    </linearGradient>
    <linearGradient id="linear-gradient1" x1="67.47" y1="190.56" x2="472.8" y2="371.68" gradientUnits="userSpaceOnUse">
      <stop offset="0" stop-color="#f0f5fb"/>
      <stop offset="1" stop-color="#dfebf7"/>
    </linearGradient>
    <linearGradient id="linear-gradient2" x1="232.98" y1="180.4" x2="253.53" y2="196.8" gradientUnits="userSpaceOnUse">
      <stop offset="0" stop-color="#f0f5fb"/>
      <stop offset="1" stop-color="#f0f5fb"/>
    </linearGradient>
  </defs>
  <rect class="st2" x="0" y="0" width="512" height="512" rx="22.07" ry="22.07"/>
  <g>
    <path class="st1" d="M476.03,296.35c-3.81-6.25-11.9-8.2-18.08-4.35-6.67,4.14-11.35,9.46-15.12,13.73-.16.18-.33.37-.51.57-1.28,1.44-3.65.36-3.4-1.55.77-5.9,2.13-13.04,3.18-18.58,4.66-24.44,9.93-52.14-2.8-69.12-3.94-5.25-11.42-11.75-24.69-12.88-10.03-.86-24.95,1.81-39.12,19.32-1.37,1.69-2.72,3.5-4.04,5.43-.88,1.28-2.84,1.11-3.42-.33-1.14-2.84-2.48-5.52-4.05-7.98-5.76-9.07-14.13-14.86-24.21-16.75-13.14-2.46-31.44-.49-44,22.93-7.18,13.39-10.76,30.27-14.21,46.58-1.96,9.27-5.04,23.79-8.22,30.02-.6,1.18-2.17,1.44-3.1.49h0c-11.29-11.49-16.07-55.32-15.86-82.76.06-7.06-5.36-12.93-12.33-13.36-6.98-.44-13.06,4.72-13.87,11.73-.03.23-2.73,23.27-10.4,45.72-4.95,14.5-15.55,38.82-30.9,38.82-9.73,0-12.26-2.94-14.78-31.93-1.28-14.69-2.72-31.35-9.52-46.65-.01-.03-.03-.06-.05-.1-1.05-2.79-2.29-5.46-3.75-7.97-8.06-13.99-21.77-22.72-38.6-24.57h-.07c-18.3-2.19-37.08,3.59-52.87,16.26-17.87,14.34-30,35.99-32.48,57.95-2.81,20.8,2.22,40.44,13.77,53.88,9.48,11.14,23.33,17.27,39.01,17.26.13,0,.26,0,.39,0,13.33-.09,27.4-4.68,38.61-12.62,7.75-5.31,14.84-12.46,20.92-20.97.92-1.29,2.92-1.02,3.42.48.56,1.65,1.19,3.26,1.91,4.82,4.36,9.45,13.82,20.72,34.09,20.72,21.92,0,36.82-16.39,46.72-35.35.8-1.53,3.06-1.31,3.57.33,3.68,12.02,8.46,20.95,14.4,27.01,6.06,6.18,13.48,9.44,21.46,9.44,14.11,0,21.76-11.47,25.69-21.1,3.66-8.96,6.03-20.15,8.54-32.01,3.07-14.48,6.24-29.46,11.61-39.48,5.09-9.49,9.76-10.66,16.1-9.47,2.95.55,5.01,2.04,6.87,4.97,7.66,12.05,6.55,39.24,3.09,61.85,0,.05-.02.1-.03.15-2.8,12.11-4.1,20.66-4.19,21.29-1.05,7.01,3.53,13.61,10.41,15.01,6.87,1.39,13.62-2.91,15.33-9.79.57-2.29,2.48-10.3,4.22-21.14,0-.05.02-.09.03-.14,2.08-8.92,5.02-19.82,8.91-30.52,4.64-12.78,17.13-42.35,32.78-41.02,4.38.37,5.47,1.83,5.94,2.45,5.66,7.54,1.01,31.92-2.06,48.05-2,10.47-3.88,20.37-4.17,28.63-.62,17.9,7.34,24.47,14.13,26.83,3.71,1.29,7.11,1.84,10.23,1.84,12.69,0,20.74-9.14,25.97-15.07,3.03-3.43,5.88-6.67,9.27-8.78,6.18-3.84,8.11-12.02,4.31-18.27ZM135.61,271.66c-.03.07-.06.15-.09.22-5.62,13.84-14.06,25.11-23.77,31.74-.07.05-.14.1-.21.15-12.86,9.14-32.97,11.68-43.1-.21-6.55-7.62-9.39-19.97-7.6-33.05.02-.12.03-.23.04-.35,1.65-14.91,10.35-30.34,22.72-40.27,8.91-7.15,19.03-10.95,28.94-10.95,1.51,0,3.01.09,4.5.27.05,0,.12.01.18.02.04,0,.08,0,.12.01,8.56.94,14.86,4.82,18.73,11.53,5.93,10.29,5.74,26.34-.47,40.89Z"/>
    <ellipse class="st0" cx="241.01" cy="186.81" rx="13.14" ry="13.28"/>
  </g>
</svg>