<svg width="232" height="60" viewBox="0 0 232 60" fill="none" xmlns="http://www.w3.org/2000/svg">
<g clip-path="url(#clip0_248_976)">
<path d="M21.6181 7.18774L15.1895 10.4894L15.5886 11.2779L18.3128 9.87694L19.2582 11.7425L20.2456 11.2356L19.3002 9.37007L22.0173 7.9762L21.6181 7.18774Z" fill="#9DA4A6"/>
<path d="M17.6966 7.4482C18.5929 8.0325 19.5803 7.52564 19.5803 7.52564L21.044 6.77238L20.6938 6.08952L19.5663 6.66679C19.5663 6.66679 18.705 7.15253 18.0327 6.44151L20.2806 5.28699L19.8745 4.49854L14.02 7.50452L14.4192 8.29297L16.6671 7.13845C16.8492 8.1029 15.9528 8.51825 15.9528 8.51825L14.8254 9.09551L15.1755 9.77837L16.6391 9.02511C16.6391 9.02511 17.6335 8.52529 17.6826 7.4482H17.6966Z" fill="#9DA4A6"/>
<path d="M10.6799 11.7002L9.93059 12.6787L9.11825 12.0522L8.43896 12.9392L13.299 16.6984L13.9783 15.8114L10.6239 13.2137L11.3732 12.2423L10.6799 11.7002Z" fill="#9DA4A6"/>
<path d="M7.53535 14.34C6.9401 14.6427 6.37987 15.396 6.37987 15.396C6.37987 15.396 5.79162 16.1281 5.65857 16.7828C5.65857 16.7828 5.35044 17.9162 6.38687 18.7539C7.46532 19.5494 8.47374 18.9581 8.47374 18.9581C9.06899 18.6554 9.62922 17.9021 9.62922 17.9021C9.62922 17.9021 10.2175 17.17 10.3505 16.5153C10.3505 16.5153 10.6587 15.3819 9.61522 14.5371C8.54377 13.7416 7.52835 14.333 7.52835 14.333L7.53535 14.34ZM9.31409 16.5434C9.23006 16.9165 8.88691 17.346 8.88691 17.346C8.88691 17.346 8.55778 17.7895 8.22164 17.9655C8.22164 17.9655 7.6474 18.3175 7.05915 17.881C6.49191 17.4164 6.68099 16.7687 6.68099 16.7687C6.76503 16.3956 7.10817 15.9662 7.10817 15.9662C7.10817 15.9662 7.43031 15.5297 7.76645 15.3467C7.76645 15.3467 8.34069 14.9947 8.92893 15.4312C9.49617 15.8958 9.30709 16.5434 9.30709 16.5434H9.31409Z" fill="#9DA4A6"/>
<path d="M31.7443 2.92155V3.94936H30.981V2.92155H29.8675V6.06129H27.2204L27.1784 6.01201V3.78744H29.2582V2.90747H26.1279V6.30064C26.1279 6.65967 26.415 6.9483 26.7722 6.9483C26.7792 6.9483 26.7932 6.9483 26.8002 6.9483H29.8675V9.08135H30.981V4.83637H31.7443V9.08135H32.8577V2.92155H31.7443Z" fill="#9DA4A6"/>
<path d="M50.1762 19.3665L53.4465 16.7688C53.4465 16.7688 53.4535 16.7618 53.4605 16.7618C53.7266 16.5506 53.7757 16.1774 53.6006 15.9029L50.3232 11.7354L49.6369 12.2845L52.6482 16.1141L49.5529 18.578L48.8946 17.7403L51.2266 15.8818L50.5963 15.0792L48.2574 16.9448L47.6901 16.2197L50.0291 14.3612L49.3988 13.5587L47.0599 15.4172L46.2055 14.326L45.5122 14.8751L50.0151 20.5914L50.7014 20.0423L50.1832 19.3805L50.1762 19.3665Z" fill="#9DA4A6"/>
<path d="M45.3371 8.33511L44.2867 7.8212L44.7629 6.84972L43.8525 6.39917L42.564 9.03205L43.4743 9.48259L43.9435 8.51814L44.994 9.03909L45.3371 8.33511Z" fill="#9DA4A6"/>
<path d="M42.977 10.4963C43.131 10.1795 43.005 9.7923 42.6899 9.63743L37.5217 7.07495L37.1646 7.80709L41.9896 10.1936L41.1352 11.9465L42.0456 12.397L42.977 10.5033V10.4963Z" fill="#9DA4A6"/>
<path d="M38.3618 5.3995C38.3618 5.3995 38.1518 5.82189 38.2008 6.16684C38.2008 6.16684 38.2358 6.65962 38.67 7.07497C38.8871 7.28616 39.2302 7.46919 39.6924 7.70151C40.1616 7.93382 40.5117 8.08869 40.8059 8.13797C41.4081 8.22949 41.8143 7.96198 41.8143 7.96198C42.1154 7.77894 42.3185 7.3636 42.3185 7.3636C42.3185 7.3636 42.4796 7.03273 42.4866 6.71594L42.9768 6.95529L43.3619 6.1598L41.4711 5.22351L41.6812 4.78704L40.7708 4.33649L40.5538 4.77296L38.663 3.83667L38.2708 4.62512L38.761 4.87152C38.5159 5.06863 38.3548 5.3995 38.3548 5.3995H38.3618ZM41.233 7.21576C41.233 7.21576 41.044 7.34248 40.7638 7.30024C40.6238 7.27912 40.2596 7.10313 40.0425 6.99753C39.8255 6.89193 39.4963 6.72298 39.3983 6.62442C39.1952 6.42731 39.1812 6.20203 39.1812 6.20203C39.1602 6.04012 39.2582 5.84301 39.2582 5.84301C39.2582 5.84301 39.3563 5.64589 39.4963 5.56141C39.4963 5.56141 39.6854 5.4347 39.9655 5.47694C40.1056 5.49806 40.4417 5.65293 40.6588 5.76557C40.8759 5.87116 41.233 6.06124 41.3381 6.1598C41.5412 6.35691 41.5552 6.58218 41.5552 6.58218C41.5762 6.7441 41.4781 6.94121 41.4781 6.94121C41.4781 6.94121 41.3801 7.13832 41.24 7.2228L41.233 7.21576Z" fill="#9DA4A6"/>
<path d="M5.13309 33.9879L4.93001 32.2069L3.12325 31.7634L3.05322 31.158L7.17795 32.2843C7.44406 32.3547 7.75219 32.4533 7.81521 32.1013H7.84323L7.96928 33.2136L4.53784 35.1002C4.15268 35.3114 3.78153 35.4804 3.59945 35.9098L3.4804 34.8468L5.13309 33.9809V33.9879ZM7.31801 32.8264L5.46923 32.3336L5.6303 33.7204L7.31801 32.8264Z" fill="#9DA4A6"/>
<path d="M7.68201 36.4871C7.99014 36.3955 8.49435 36.2759 8.51536 35.8887H8.54337L8.94954 37.177H8.92153C8.69043 36.8883 8.21423 37.0854 7.90611 37.177L4.08251 38.3808C3.36821 38.606 2.81498 38.2822 2.48584 37.4445V37.4093C3.16512 37.8246 3.55729 37.7824 4.28559 37.5501L7.68901 36.473L7.68201 36.4871Z" fill="#9DA4A6"/>
<path d="M9.44673 44.2589C8.11617 44.808 6.69458 44.104 6.15535 42.7946C5.62313 41.4923 6.09933 40.0139 7.43689 39.4578C8.6764 38.9439 10.161 39.5915 10.6932 40.9854C11.2675 42.3652 10.6232 43.7661 9.44673 44.2589ZM7.80104 40.1899C6.88365 40.5701 6.21838 41.612 6.63855 42.6398C7.05172 43.6394 8.03213 43.9703 9.00554 43.569C9.95794 43.1748 10.6302 42.1751 10.203 41.1403C9.78987 40.1195 8.78845 39.7816 7.80104 40.1899Z" fill="#9DA4A6"/>
<path d="M11.7156 49.6655L12.0447 49.3346C11.5335 49.405 11.0083 49.1164 10.6581 48.7644C10.329 48.4335 10.0769 47.976 10.0979 47.5043C10.1259 46.9482 10.4691 46.6243 10.8262 46.2583L12.1568 44.9137C12.3809 44.6884 12.78 44.3575 12.647 43.9915L13.3893 44.7306L12.668 45.4346L11.3374 46.7792C10.6721 47.448 10.6441 48.0393 11.1623 48.5603C11.4425 48.8419 11.8416 49.0108 12.2408 48.9404C12.4999 48.8982 12.619 48.7715 12.801 48.5884L14.2997 47.0749C14.5238 46.8496 14.9159 46.5117 14.7899 46.1386L15.5322 46.8848L14.8109 47.5888L12.2338 50.1865L11.7226 49.6796L11.7156 49.6655Z" fill="#9DA4A6"/>
<path d="M20.7635 55.1426L20.9315 54.7272C20.4904 54.9877 19.8881 54.9243 19.4329 54.7343C18.9987 54.5512 18.5996 54.2274 18.4385 53.7839C18.2494 53.2559 18.4385 52.8194 18.6346 52.3548L19.3559 50.6019C19.4749 50.3062 19.72 49.8486 19.4539 49.553L20.4133 49.9542L20.0142 50.8765L19.2929 52.6294C18.9357 53.5023 19.1318 54.0584 19.8041 54.34C20.1682 54.4949 20.6024 54.4949 20.9455 54.2767C21.1696 54.1359 21.2327 53.9669 21.3307 53.7346L22.143 51.7564C22.2621 51.4608 22.5002 50.9961 22.2411 50.7005L23.2075 51.1088L22.8083 52.038L21.4217 55.4101L20.7565 55.1355L20.7635 55.1426Z" fill="#9DA4A6"/>
<path d="M28.9849 52.9531L28.5297 56.9095C28.0465 56.6842 27.8574 56.4237 27.5983 55.9873L25.5465 52.6363L25.1263 56.2689L24.6221 56.2125L25.0492 52.4955C25.0983 52.1013 25.1263 51.8197 24.7901 51.5733V51.5452L25.8126 51.6648C25.8266 51.7634 25.8546 51.7986 25.8966 51.862L25.9806 52.0168L28.1726 55.5719L28.4807 52.8968C28.5227 52.5026 28.5647 52.1928 28.2216 51.9394L29.0969 52.0379L28.9849 52.9531Z" fill="#9DA4A6"/>
<path d="M31.3307 56.6911L31.1487 53.0164C31.1346 52.6925 31.1557 52.1716 30.7915 52.0449L31.8209 51.9956L31.87 52.9741L32.052 56.6489L31.3377 56.6841L31.3307 56.6911Z" fill="#9DA4A6"/>
<path d="M52.5565 44.0197L49.4052 42.1542C49.1251 41.9852 48.7049 41.6825 48.4038 41.9219L48.929 41.0278L49.7694 41.5277L52.9207 43.3932L52.5565 44.0197Z" fill="#9DA4A6"/>
<path d="M36.4712 52.4182C36.5412 51.8831 36.6393 51.2636 36.1771 51.1933V51.1651L37.1925 50.9187L36.4992 56.1141C35.946 55.9099 35.7709 55.8888 35.4488 55.396L33.74 52.8124C33.53 52.4886 33.3269 52.1155 32.9697 51.9535V51.9254L33.9641 51.686L33.9781 51.7705C34.0132 51.9254 34.2232 52.2281 34.3143 52.3689L36.114 55.1144L36.4642 52.4111L36.4712 52.4182Z" fill="#9DA4A6"/>
<path d="M40.1755 53.6783L39.006 51.2707C38.8659 50.982 38.6768 50.4963 38.2987 50.5315L38.2847 50.5104L40.3155 49.5107C40.4206 49.4614 40.5396 49.4262 40.6026 49.3347H40.6236L40.9878 50.0739H40.9668C40.6587 49.9542 40.3855 50.0528 40.0914 50.2006C39.8673 50.3062 39.6502 50.4259 39.4682 50.5596L40.0424 51.7494L40.7987 51.3763C40.9038 51.327 41.0018 51.2777 41.0578 51.2003H41.0788L41.408 51.869H41.394C41.2049 51.7423 40.9388 51.8831 40.7427 51.9746L40.2735 52.2069L41.0088 53.7205L41.8562 53.3967C42.2903 53.2277 42.6685 52.8828 42.8436 52.4463L42.8646 52.4322L42.9836 53.4107L40.6166 54.5723L40.1895 53.6712L40.1755 53.6783Z" fill="#9DA4A6"/>
<path d="M45.3228 51.7775L43.0819 48.8912C42.8788 48.6307 42.6057 48.1942 42.2415 48.3139L42.2275 48.2928L43.5511 47.2509C44.3004 46.6596 45.0077 46.737 45.4069 47.2509C45.792 47.7437 45.659 48.4688 45.2878 48.9334L46.8775 49.3136C47.3397 49.4192 47.9139 49.4332 48.3831 49.391L47.8719 49.7923C47.5708 50.0246 47.3397 50.095 47.0105 50.0175L45.673 49.7078L44.5525 49.3206C44.9447 48.9053 45.3018 48.2928 44.8957 47.7648C44.5805 47.3635 44.0553 47.3987 43.6912 47.7085C43.5651 47.8141 43.4601 47.9267 43.348 48.0464L45.9041 51.334L45.3368 51.7775H45.3228Z" fill="#9DA4A6"/>
<path d="M48.2572 43.7732C47.865 43.8084 47.4588 44.0407 47.2137 44.3505C46.9546 44.6602 46.7515 45.153 47.1297 45.4698C47.879 46.0893 49.4126 44.1886 50.4211 45.0263C51.0093 45.505 51.0513 46.5751 50.351 47.4269C50.0779 47.7648 49.7558 48.0534 49.3846 48.2716L48.5723 47.8704C49.1185 47.7718 49.6577 47.4691 50.0079 47.0467C50.267 46.7299 50.4631 46.1034 50.0779 45.7936C49.2236 45.0897 47.837 47.103 46.6745 46.1456C45.9882 45.5754 46.3033 44.6532 46.8566 43.9844C47.0807 43.7099 47.3468 43.4635 47.6409 43.2664L48.2572 43.7803V43.7732Z" fill="#9DA4A6"/>
<path d="M56.1281 34.4738L54.1253 34.1852L52.0874 35.0792C51.7513 35.22 51.5062 35.3256 51.2681 35.6354L51.4221 34.5864L53.6281 33.6361L52.4516 32.5731C52.2975 32.4252 51.9824 32.2211 51.7373 32.5801H51.7092L51.8843 31.3481L54.2303 33.453L56.2331 33.7417L56.1281 34.4597V34.4738Z" fill="#9DA4A6"/>
<path d="M49.6647 39.8592L50.316 40.3661V40.345C50.2109 40.0704 50.26 39.7395 50.365 39.458L50.5961 38.8737L54.4547 40.4013L54.7138 39.7255L50.8552 38.1978L51.0863 37.6065C51.1703 37.3883 51.3104 37.1348 51.5695 37.1419V37.1208L50.9182 36.635L49.6577 39.8592H49.6647Z" fill="#9DA4A6"/>
<path d="M29.8325 0C13.3616 0 0 13.4319 0 29.9824C0 46.5329 13.3616 60 29.8325 60C46.3034 60 59.693 46.5681 59.693 29.9824C59.693 13.3967 46.3244 0 29.8325 0ZM29.8325 59.113C13.8518 59.113 0.882369 46.0753 0.882369 29.9824C0.882369 13.8895 13.8518 0.887012 29.8325 0.887012C45.8132 0.887012 58.8036 13.9247 58.8036 29.9824C58.8036 46.0401 45.8342 59.113 29.8325 59.113Z" fill="#9DA4A6"/>
<path d="M49.2375 29.9895C49.2375 40.7674 40.5538 49.4967 29.8323 49.4967C19.1109 49.4967 10.4482 40.7674 10.4482 29.9895C10.4482 19.2116 19.1249 10.5034 29.8323 10.5034C40.5398 10.5034 49.2375 19.2327 49.2375 29.9895Z" fill="#9DA4A6"/>
<path d="M7.19222 25.0476C7.19222 25.4911 6.83507 25.8572 6.38688 25.8572C5.93869 25.8572 5.58154 25.4982 5.58154 25.0476C5.58154 24.5971 5.93869 24.238 6.38688 24.238C6.83507 24.238 7.19222 24.6041 7.19222 25.0476Z" fill="#9DA4A6"/>
<path d="M54.2308 25.0476C54.2308 25.4911 53.8736 25.8572 53.4255 25.8572C52.9773 25.8572 52.6201 25.4982 52.6201 25.0476C52.6201 24.5971 52.9773 24.238 53.4255 24.238C53.8736 24.238 54.2308 24.6041 54.2308 25.0476Z" fill="#9DA4A6"/>
<path d="M26.3871 13.3474L18.2497 25.3432C18.2497 25.3432 16.2749 27.8141 17.9065 31.0454L22.1503 37.6206C22.1503 37.6206 22.8786 38.9159 24.3702 38.9159H27.5566C27.5566 38.9159 27.0524 38.7188 26.7372 38.2612L22.0033 30.9398C22.0033 30.9398 21.2329 29.6938 21.289 28.4336C21.289 28.4336 21.338 27.3284 21.9822 26.2795L26.4151 19.5917L31.6673 27.7719C31.6673 27.7719 32.2625 28.666 31.6323 29.384C31.6323 29.384 31.2471 29.7853 30.2877 29.4755L32.1225 32.3196C32.1225 32.3196 32.4516 32.7772 32.9978 32.7772C32.9978 32.7772 33.383 32.7772 33.7472 32.3407L35.1057 30.1232C35.1057 30.1232 36.1001 28.8068 35.0567 26.7582L26.3871 13.3474Z" fill="white"/>
<path d="M37.1016 37.8317L41.1352 31.7212C41.1352 31.7212 43.1101 29.2503 41.4784 26.019L34.1673 14.692C34.1673 14.692 33.439 13.3896 31.9474 13.3896H28.7611C28.7611 13.3896 29.2653 13.5868 29.5804 14.0443L37.2206 25.7374C37.2206 25.7374 38.243 27.3002 38.096 28.6237C38.096 28.6237 38.047 29.729 37.3957 30.7779L34.7556 34.9173C34.3144 35.4875 33.8522 35.5016 33.8522 35.5016H32.2555C31.7303 35.4453 31.3451 34.8258 31.3451 34.8258L27.7036 29.2855C27.7036 29.2855 27.1084 28.3914 27.7386 27.6734C27.7386 27.6734 28.1238 27.2721 29.0832 27.5889L27.2484 24.7448C27.2484 24.7448 26.9193 24.2872 26.3801 24.2872C26.3801 24.2872 25.9949 24.2872 25.6308 24.7237L24.2652 26.9342C24.2652 26.9342 23.2708 28.2506 24.3142 30.3062L29.2163 37.874C29.2163 37.874 29.8885 38.9159 30.869 38.9159H35.2738C35.2738 38.9159 36.3733 38.944 37.0875 37.8317H37.1016Z" fill="white"/>
<path d="M24.8954 46.0611H24.2441V41.8514L23.5088 42.3512V41.7246C23.6699 41.6542 24.1391 41.2952 24.3351 41.1333H24.8954V46.0682V46.0611Z" fill="white"/>
<path d="M29.1671 43.6184C29.1671 44.9067 29.1671 46.1738 27.8436 46.1738C27.1083 46.1738 26.618 45.667 26.6391 44.8855H27.2903C27.2903 45.2516 27.4304 45.6247 27.8506 45.6247C28.4808 45.6247 28.5228 44.9278 28.5228 43.6606H28.5088C28.3548 44.0056 28.0466 44.1253 27.6685 44.1253C27.2903 44.1253 26.541 43.9211 26.541 42.5695C26.541 41.4642 27.1993 41.0559 27.8506 41.0559C29.1951 41.0559 29.1741 42.2949 29.1741 43.6184H29.1671ZM27.1853 42.5483C27.1853 43.0411 27.2763 43.5691 27.8436 43.5691C28.4108 43.5691 28.5018 43.0341 28.5018 42.5483C28.5018 42.1048 28.4038 41.5276 27.8436 41.5276C27.2833 41.5276 27.1853 42.1048 27.1853 42.5483Z" fill="white"/>
<path d="M29.9233 41.1333H32.4654V41.7035L31.1559 46.0682H30.4205L31.7931 41.7035H29.9233V41.1333Z" fill="white"/>
<path d="M34.3285 43.1889C34.9167 43.2382 35.3299 43.0059 35.3299 42.3723C35.3299 41.9218 35.1338 41.5979 34.6506 41.5979C34.1114 41.5979 34.0273 42.0062 34.0344 42.4005H33.3831C33.3341 41.5627 33.7332 41.0488 34.6506 41.0488C35.484 41.0488 35.9812 41.4642 35.9812 42.3301C35.9812 43.2593 35.2949 43.4001 35.0148 43.4775V43.4916C35.7851 43.5972 36.0302 44.0055 36.0302 44.7517C36.0302 45.7092 35.519 46.1738 34.5736 46.1738C33.201 46.1738 33.3061 44.9911 33.3061 44.7095H33.9573C33.9643 45.1953 34.0414 45.6247 34.6296 45.6247C35.2178 45.6247 35.3789 45.2586 35.3789 44.7377C35.3789 43.9422 35.0848 43.7732 34.3215 43.7732V43.196L34.3285 43.1889Z" fill="white"/>
<path d="M80.3868 44.8502H75.1977L73.3209 49.9611H71.5562L76.1921 38.3314C76.4792 37.5852 76.8714 36.7193 75.884 36.4095V36.3462H79.1403L83.4191 46.9622C83.8953 48.1449 84.2665 49.2923 85.436 49.9611H82.3407L80.3938 44.8502H80.3868ZM77.7678 38.0921L75.7299 43.3085H79.7916L77.7678 38.0921Z" fill="#9DA4A6"/>
<path d="M86.4654 39.2538C86.4654 38.3034 86.5914 36.7899 85.534 36.3956V36.3323H89.4696V36.3956C88.4402 36.7899 88.5593 38.2964 88.5593 39.2538V50.9961C88.5593 53.1925 87.1797 54.4527 84.5816 54.6498L84.4976 54.6005C86.2413 53.0869 86.4584 51.9465 86.4584 49.7078V39.2538H86.4654Z" fill="#9DA4A6"/>
<path d="M105.128 43.0059C105.128 47.2297 101.648 50.2921 97.5441 50.2921C93.4404 50.2921 90.0229 47.3565 90.0229 43.1044C90.0229 39.1692 93.4264 35.8816 97.7472 35.9802C102.075 35.9591 105.121 39.2748 105.121 43.0059H105.128ZM92.3759 42.9144C92.3759 45.8148 94.4138 48.7996 97.6491 48.7996C100.884 48.7996 102.775 46.4976 102.775 43.4142C102.775 40.3308 100.863 37.4726 97.6071 37.4726C94.3508 37.4726 92.3759 39.7887 92.3759 42.9144Z" fill="#9DA4A6"/>
<path d="M115.121 49.9824V48.6096C114.218 49.8134 112.523 50.3062 111.081 50.3062C109.722 50.3062 108.28 49.8698 107.355 48.856C106.263 47.6522 106.305 46.2654 106.305 44.773V39.2467C106.305 38.3175 106.445 36.8039 105.422 36.3323H108.462L108.406 39.2467V44.773C108.406 47.5255 109.561 48.8068 111.683 48.8068C112.838 48.8068 114.008 48.328 114.687 47.3636C115.142 46.7441 115.121 46.2232 115.121 45.4769V39.2467C115.121 38.3175 115.247 36.8039 114.218 36.3323H117.264L117.222 39.2679V49.9824H115.121Z" fill="#9DA4A6"/>
<path d="M136.992 49.9329V48.6235C136.081 49.8273 134.393 50.3201 132.951 50.3201C131.592 50.3201 130.15 49.8836 129.225 48.8699C128.133 47.6661 128.175 46.2793 128.175 44.7868V39.2606C128.175 38.3314 128.322 36.8178 127.292 36.3391H130.332L130.276 39.2606V44.7868C130.276 47.5394 131.431 48.8206 133.553 48.8206C134.709 48.8206 135.878 48.349 136.564 47.3775C137.02 46.758 136.999 46.237 136.999 45.4908V39.2606C136.999 38.3314 137.125 36.8178 136.088 36.3391H139.134L139.092 39.2817V49.9259H136.992V49.9329Z" fill="#9DA4A6"/>
<path d="M152.804 39.0143V50.6299C151.341 50.1371 150.703 49.4472 149.8 48.2716L142.734 39.2607V49.9189H141.249V39.0143C141.249 37.8527 141.249 37.029 140.171 36.4095V36.3462H143.182V36.3673C143.266 36.6137 143.35 36.7193 143.49 36.8883L143.777 37.3036L151.32 46.8707V39.0213C151.32 37.8597 151.341 36.9587 150.255 36.3462H152.832L152.804 39.0213V39.0143Z" fill="#9DA4A6"/>
<path d="M155.283 49.9188V39.1973C155.283 38.2469 155.43 36.7333 154.387 36.3391H157.391V49.9118H155.283V49.9188Z" fill="#9DA4A6"/>
<path d="M204.787 49.912V39.1904C204.787 38.233 204.927 36.7265 203.883 36.3323H206.888V39.1904V49.912H204.787Z" fill="#9DA4A6"/>
<path d="M167.776 40.0913C168.329 38.62 169.037 36.9234 167.755 36.4095V36.3462H170.829L165.388 50.5876C163.946 49.6372 163.469 49.4683 162.874 47.8351L159.765 39.3592C159.38 38.3032 159.065 37.0994 158.161 36.4025V36.3391H161.172L161.151 36.5855C161.151 37.0431 161.544 38.0568 161.712 38.5144L164.982 47.5183L167.783 40.0843L167.776 40.0913Z" fill="#9DA4A6"/>
<path d="M172.538 47.0679V39.2607C172.538 38.3104 172.657 36.7968 171.607 36.4026V36.3392H178.204C178.554 36.3392 178.897 36.3674 179.17 36.2336H179.233V38.6553H179.17C178.533 37.9091 177.685 37.8317 176.74 37.8317C176.019 37.8317 175.297 37.8528 174.632 37.9795V41.8303H177.083C177.419 41.8303 177.748 41.8303 177.994 41.7106H178.057V43.907H177.994C177.664 43.3086 176.803 43.3297 176.159 43.3297H174.632V48.2365L177.251 48.4899C178.61 48.6096 180.031 48.1731 181.061 47.265H181.117L180.193 49.9753H172.503L172.531 47.0749L172.538 47.0679Z" fill="#9DA4A6"/>
<path d="M182.294 49.947V39.2606C182.294 38.3102 182.441 36.7967 181.39 36.4025V36.3391H186.292C189.051 36.3391 190.557 37.7823 190.557 39.6689C190.557 41.5556 188.967 42.9143 187.28 43.3085L190.242 47.0536C191.103 48.1307 192.406 49.2149 193.582 49.954H191.684C190.592 49.954 189.913 49.6865 189.296 48.9192L186.782 45.7935L184.892 42.872C186.537 42.6256 188.456 41.8583 188.456 39.9083C188.456 38.4158 187.175 37.55 185.795 37.6133C185.319 37.6344 184.864 37.6907 184.394 37.7752V49.9329H182.294V49.947Z" fill="#9DA4A6"/>
<path d="M202.28 38.7751C201.475 37.9514 200.193 37.4727 199.045 37.4727C197.896 37.4727 196.39 37.9303 196.39 39.3594C196.39 42.1964 203.477 42.1612 203.477 45.9838C203.477 48.2013 201.173 50.271 197.959 50.271C196.706 50.271 195.445 50.088 194.269 49.6515L193.673 47.0609C194.885 48.1168 196.573 48.7856 198.183 48.7856C199.36 48.7856 201.131 48.0887 201.131 46.6314C201.131 43.4002 194.052 43.9775 194.052 39.5917C194.052 36.9799 196.706 35.9873 199.22 35.9873C200.249 35.9873 201.3 36.1281 202.287 36.4378V38.7821L202.28 38.7751Z" fill="#9DA4A6"/>
<path d="M224.318 49.94V44.0125L220.908 38.4863C220.347 37.5712 219.934 36.8953 218.947 36.3533H222.014L225.663 42.3371L228.212 38.4863C228.562 37.9654 229.038 36.9728 227.883 36.4166V36.3533H231.482L226.419 44.0125V49.94H224.318Z" fill="#9DA4A6"/>
<path d="M208.372 36.3391L207.693 38.6341H207.756C208.393 38.0357 209.325 37.8034 210.207 37.8034H212.021V49.9611H214.122V37.8034H215.97C216.65 37.8034 217.469 37.909 217.742 38.6341H217.798L218.414 36.3391H208.365H208.372Z" fill="#9DA4A6"/>
<path d="M99.6381 7.37061H95.1562V32.2421H99.6381V15.0862H104.582V11.5241H99.6381V7.37061Z" fill="#9DA4A6"/>
<path d="M161.348 11.524H158.28V7.37053H153.798V20.0351H143.119L142.958 19.8309V10.8763H151.34V7.31421H138.721V20.9784C138.721 20.9784 138.721 20.9925 138.721 21.0066C138.721 22.4427 139.877 23.6042 141.312 23.6042C141.333 23.6042 141.347 23.6042 141.368 23.6042H153.798V32.1928H158.28V15.0861H161.348V32.1928H165.823V7.37053H161.348V11.524Z" fill="#9DA4A6"/>
<path d="M197.175 7.29321H193.078V19.12H197.175V14.7906H201.881V11.6579H197.175V7.29321Z" fill="#9DA4A6"/>
<path d="M106.039 23.745H118.343V32.1857H122.825V23.745H135.129V20.1829H106.039V23.745Z" fill="#9DA4A6"/>
<path d="M120.584 13.8752C122.72 17.6345 127.202 17.6134 127.202 17.6134H133.841V14.5159H128.749C128.749 14.5159 124.751 14.6637 123.651 10.8693H133.834V7.30713H107.313V10.8693H117.503C116.403 14.6637 112.405 14.5159 112.405 14.5159H107.313V17.6134H113.952C113.952 17.6134 118.434 17.6345 120.577 13.8752H120.584Z" fill="#9DA4A6"/>
<path d="M228.625 26.8777V9.9752C228.625 9.9752 228.625 9.93296 228.625 9.91185C228.625 8.55317 227.589 7.44792 226.265 7.32825V7.30713H204.962V10.8693H224.521V26.8707H220.229V14.7974H216.132V26.8707H212.434V14.7974H208.331V26.8707H202.756V30.4328H231.994V26.8707H228.618L228.625 26.8777Z" fill="#9DA4A6"/>
<path d="M88.4545 7.91976C86.0385 6.74412 82.2569 6.81451 82.2569 6.81451C82.2569 6.81451 78.4754 6.73708 76.0593 7.91976C76.0593 7.91976 71.6965 9.72194 71.5845 15.1285C71.7035 20.528 76.0593 22.3302 76.0593 22.3302C78.4754 23.5058 82.2569 23.4284 82.2569 23.4284C82.2569 23.4284 86.0385 23.5058 88.4545 22.3302C88.4545 22.3302 92.8103 20.528 92.9294 15.1285C92.8103 9.72194 88.4545 7.91976 88.4545 7.91976ZM85.8564 19.0637C84.4488 19.7043 82.2639 19.6691 82.2639 19.6691C82.2639 19.6691 80.058 19.7043 78.6574 19.0637C78.6574 19.0637 76.1294 18.0852 76.0523 15.1285C76.1224 12.1718 78.6574 11.1862 78.6574 11.1862C80.058 10.5456 82.2639 10.5878 82.2639 10.5878C82.2639 10.5878 84.4559 10.5526 85.8564 11.1862C85.8564 11.1862 88.3845 12.1718 88.4545 15.1285C88.3845 18.0852 85.8564 19.0637 85.8564 19.0637Z" fill="#9DA4A6"/>
<path d="M197.175 23.6958C197.175 22.2667 196.026 21.1122 194.612 21.0981H171.39V24.3716H193.085V32.2421H197.182V23.7099C197.182 23.7099 197.182 23.7029 197.182 23.6958H197.175Z" fill="#9DA4A6"/>
<path d="M171.467 13.5163C171.467 13.5163 171.467 15.41 172.238 16.5856C172.238 16.5856 173.225 18.3033 175.557 19.0284C176.727 19.3945 178.274 19.4649 180.375 19.4649C182.476 19.4649 184.017 19.3945 185.186 19.0284C187.518 18.3033 188.512 16.5856 188.512 16.5856C189.276 15.41 189.276 13.5163 189.276 13.5163C189.276 13.5163 189.276 12.0309 188.744 10.8764H190.935V7.31424H182.42V5.35718H178.323V7.31424H169.808V10.8764H172C171.474 12.0309 171.467 13.5163 171.467 13.5163ZM185.067 14.9383C185.067 14.9383 184.605 15.7408 183.519 16.0717C182.98 16.2407 181.348 16.2759 180.375 16.2759C179.402 16.2759 177.903 16.2407 177.357 16.0717C176.271 15.7338 175.809 14.9383 175.809 14.9383C175.452 14.3892 175.452 13.5092 175.452 13.5092C175.452 13.5092 175.452 12.6152 175.809 12.0661C175.809 12.0661 176.271 11.2706 177.357 10.9327C177.903 10.7637 179.395 10.7285 180.375 10.7285C181.355 10.7285 182.98 10.7637 183.519 10.9327C184.605 11.2706 185.067 12.0661 185.067 12.0661C185.424 12.6152 185.424 13.5092 185.424 13.5092C185.424 13.5092 185.424 14.3892 185.067 14.9383Z" fill="#9DA4A6"/>
</g>
<defs>
<clipPath id="clip0_248_976">
<rect width="232" height="60" fill="white"/>
</clipPath>
</defs>
</svg>
