<svg preserveAspectRatio="none" width="100%" height="100%" overflow="visible" style="display: block;" viewBox="0 0 32 32" fill="none" xmlns="http://www.w3.org/2000/svg">
<g id="_Layer_" clip-path="url(#clip0_585_867)">
<g id="Group">
<path id="Vector" d="M11.5903 3.83339L8.14361 5.59427L8.35762 6.01478L9.81814 5.26763L10.325 6.26258L10.8544 5.99226L10.3475 4.9973L11.8043 4.2539L11.5903 3.83339Z" fill="var(--fill-0, #0066AC)"/>
<path id="Vector_2" d="M9.48774 3.97231C9.96832 4.28394 10.4977 4.01361 10.4977 4.01361L11.2824 3.61187L11.0947 3.24768L10.4902 3.55556C10.4902 3.55556 10.0284 3.81462 9.66796 3.43541L10.8732 2.81966L10.6554 2.39916L7.5166 4.00235L7.73061 4.42286L8.93582 3.80711C9.03344 4.32148 8.55286 4.543 8.55286 4.543L7.94838 4.85087L8.1361 5.21507L8.9208 4.81333C8.9208 4.81333 9.45395 4.54676 9.48023 3.97231H9.48774Z" fill="var(--fill-0, #0066AC)"/>
</g>
<g id="Group_2">
<path id="Vector_3" d="M5.72568 6.24006L5.32395 6.76194L4.88842 6.42778L4.52423 6.8971L7.12988 8.90578L7.49407 8.43271L5.69565 7.04728L6.09738 6.52916L5.72568 6.24006Z" fill="var(--fill-0, #0066AC)"/>
<path id="Vector_4" d="M4.03989 7.64801C3.72076 7.80946 3.42039 8.21119 3.42039 8.21119C3.42039 8.21119 3.10501 8.60167 3.03367 8.95084C3.03367 8.95084 2.86847 9.55532 3.42415 10.0021C4.00235 10.4264 4.543 10.111 4.543 10.111C4.86214 9.94955 5.1625 9.54781 5.1625 9.54781C5.1625 9.54781 5.47788 9.15734 5.54922 8.80817C5.54922 8.80817 5.71442 8.20368 5.15499 7.75314C4.58055 7.32887 4.03614 7.64426 4.03614 7.64426L4.03989 7.64801ZM4.99355 8.82318C4.94849 9.02217 4.76452 9.2512 4.76452 9.2512C4.76452 9.2512 4.58806 9.48774 4.40784 9.5816C4.40784 9.5816 4.09996 9.76933 3.78458 9.53655C3.48046 9.28875 3.58184 8.94333 3.58184 8.94333C3.62689 8.74434 3.81086 8.51531 3.81086 8.51531C3.81086 8.51531 3.98357 8.28253 4.16379 8.18491C4.16379 8.18491 4.47166 7.99718 4.78705 8.22997C5.09116 8.47777 4.98979 8.82318 4.98979 8.82318H4.99355Z" fill="var(--fill-0, #0066AC)"/>
</g>
<path id="Vector_5" d="M17.0194 1.55814V2.1063H16.6101V1.55814H16.0131V3.23266H14.5939L14.5714 3.20638V2.01995H15.6865V1.55063H14.0082V3.36032C14.0082 3.5518 14.1621 3.70574 14.3536 3.70574C14.3574 3.70574 14.3649 3.70574 14.3686 3.70574H16.0131V4.84336H16.6101V2.57937H17.0194V4.84336H17.6163V1.55814H17.0194Z" fill="var(--fill-0, #0066AC)"/>
<path id="Vector_6" d="M26.9013 10.3288L28.6547 8.94333C28.6547 8.94333 28.6584 8.93957 28.6622 8.93957C28.8049 8.82694 28.8312 8.62795 28.7373 8.48152L26.9802 6.25883L26.6122 6.55168L28.2267 8.59416L26.5672 9.90825L26.2142 9.46146L27.4645 8.47026L27.1266 8.04224L25.8726 9.03719L25.5685 8.65048L26.8225 7.65927L26.4846 7.23126L25.2305 8.22246L24.7725 7.6405L24.4008 7.93336L26.815 10.982L27.1829 10.6892L26.9051 10.3363L26.9013 10.3288Z" fill="var(--fill-0, #0066AC)"/>
<g id="Group_3">
<path id="Vector_7" d="M24.3069 4.44538L23.7438 4.1713L23.9991 3.65317L23.511 3.41288L22.8201 4.81708L23.3082 5.05737L23.5598 4.543L24.123 4.82084L24.3069 4.44538Z" fill="var(--fill-0, #0066AC)"/>
<path id="Vector_8" d="M23.0417 5.59803C23.1243 5.42907 23.0567 5.22257 22.8877 5.13997L20.1169 3.77332L19.9254 4.16379L22.5123 5.43658L22.0542 6.37146L22.5423 6.61176L23.0417 5.60178V5.59803Z" fill="var(--fill-0, #0066AC)"/>
<path id="Vector_9" d="M20.5674 2.87974C20.5674 2.87974 20.4548 3.10501 20.481 3.28898C20.481 3.28898 20.4998 3.5518 20.7326 3.77332C20.849 3.88596 21.033 3.98357 21.2808 4.10747C21.5323 4.23137 21.72 4.31397 21.8777 4.34026C22.2006 4.38907 22.4184 4.24639 22.4184 4.24639C22.5798 4.14877 22.6887 3.92726 22.6887 3.92726C22.6887 3.92726 22.7751 3.75079 22.7788 3.58184L23.0416 3.70949L23.2481 3.28523L22.2344 2.78587L22.3471 2.55309L21.859 2.3128L21.7426 2.54558L20.7288 2.04623L20.5186 2.46674L20.7814 2.59815C20.65 2.70327 20.5636 2.87974 20.5636 2.87974H20.5674ZM22.1068 3.84841C22.1068 3.84841 22.0054 3.91599 21.8552 3.89346C21.7801 3.8822 21.5849 3.78834 21.4685 3.73202C21.3521 3.6757 21.1756 3.58559 21.1231 3.53303C21.0142 3.4279 21.0067 3.30776 21.0067 3.30776C20.9954 3.2214 21.048 3.11627 21.048 3.11627C21.048 3.11627 21.1006 3.01115 21.1756 2.96609C21.1756 2.96609 21.277 2.89851 21.4272 2.92104C21.5023 2.9323 21.6825 3.0149 21.7989 3.07497C21.9153 3.13129 22.1068 3.23266 22.1631 3.28523C22.272 3.39036 22.2795 3.5105 22.2795 3.5105C22.2907 3.59686 22.2382 3.70198 22.2382 3.70198C22.2382 3.70198 22.1856 3.80711 22.1105 3.85216L22.1068 3.84841Z" fill="var(--fill-0, #0066AC)"/>
</g>
<g id="Group_4">
<path id="Vector_10" d="M2.75208 18.127L2.6432 17.1771L1.67453 16.9405L1.63698 16.6176L3.84841 17.2184C3.99108 17.2559 4.15628 17.3085 4.19007 17.1207H4.20509L4.27267 17.714L2.43295 18.7202C2.22645 18.8328 2.02746 18.9229 1.92984 19.1519L1.86601 18.585L2.75208 18.1232V18.127ZM3.9235 17.5075L2.9323 17.2446L3.01866 17.9843L3.9235 17.5075Z" fill="var(--fill-0, #0066AC)"/>
<path id="Vector_11" d="M4.11874 19.4598C4.28394 19.411 4.55426 19.3472 4.56553 19.1407H4.58055L4.79831 19.8278H4.78329C4.65939 19.6738 4.40408 19.779 4.23888 19.8278L2.1889 20.4698C1.80594 20.5899 1.50933 20.4172 1.33286 19.9704V19.9517C1.69706 20.1732 1.90731 20.1506 2.29778 20.0267L4.12249 19.4523L4.11874 19.4598Z" fill="var(--fill-0, #0066AC)"/>
<path id="Vector_12" d="M5.06488 23.6048C4.35152 23.8977 3.58935 23.5222 3.30025 22.8239C3.0149 22.1293 3.27021 21.3408 3.98733 21.0442C4.65188 20.7701 5.44785 21.1156 5.73319 21.859C6.04107 22.5949 5.69565 23.342 5.06488 23.6048ZM4.18256 21.431C3.69072 21.6337 3.33404 22.1894 3.55931 22.7375C3.78083 23.2707 4.30646 23.4471 4.82835 23.2331C5.33896 23.0229 5.6994 22.4897 5.47037 21.9378C5.24886 21.3934 4.71196 21.2132 4.18256 21.431Z" fill="var(--fill-0, #0066AC)"/>
<path id="Vector_13" d="M6.28136 26.4883L6.45782 26.3119C6.18374 26.3494 5.90215 26.1955 5.71442 26.0077C5.53796 25.8313 5.40279 25.5872 5.41406 25.3357C5.42907 25.0391 5.61305 24.8664 5.80453 24.6711L6.51789 23.954C6.63804 23.8339 6.85205 23.6574 6.78071 23.4622L7.17869 23.8564L6.79197 24.2318L6.07861 24.949C5.72193 25.3056 5.70691 25.621 5.98475 25.8989C6.13493 26.049 6.34894 26.1391 6.56295 26.1016C6.70186 26.0791 6.76569 26.0115 6.86331 25.9139L7.66678 25.1067C7.78693 24.9865 7.99718 24.8063 7.9296 24.6073L8.32758 25.0053L7.94086 25.3807L6.55919 26.7662L6.28511 26.4958L6.28136 26.4883Z" fill="var(--fill-0, #0066AC)"/>
<path id="Vector_14" d="M11.1322 29.4094L11.2223 29.1878C10.9858 29.3268 10.6629 29.293 10.4189 29.1916C10.1861 29.094 9.97208 28.9213 9.88572 28.6847C9.78435 28.4031 9.88572 28.1704 9.99085 27.9226L10.3776 26.9877C10.4414 26.83 10.5728 26.5859 10.4301 26.4283L10.9445 26.6423L10.7305 27.1341L10.3438 28.069C10.1523 28.5346 10.2574 28.8312 10.6179 28.9813C10.8131 29.0639 11.0459 29.0639 11.2298 28.9476C11.35 28.8725 11.3838 28.7824 11.4363 28.6585L11.8719 27.6034C11.9357 27.4457 12.0634 27.1979 11.9244 27.0402L12.4426 27.258L12.2286 27.7536L11.4852 29.552L11.1285 29.4056L11.1322 29.4094Z" fill="var(--fill-0, #0066AC)"/>
<path id="Vector_15" d="M15.5401 28.2417L15.296 30.3518C15.037 30.2316 14.9356 30.0927 14.7967 29.8599L13.6966 28.0727L13.4713 30.0101L13.201 29.9801L13.43 27.9977C13.4563 27.7874 13.4713 27.6372 13.2911 27.5058V27.4908L13.8393 27.5546C13.8468 27.6072 13.8618 27.626 13.8843 27.6597L13.9294 27.7423L15.1045 29.6384L15.2697 28.2117C15.2923 28.0014 15.3148 27.8362 15.1308 27.701L15.6001 27.7536L15.5401 28.2417Z" fill="var(--fill-0, #0066AC)"/>
<path id="Vector_16" d="M16.7978 30.2354L16.7002 28.2755C16.6927 28.1028 16.704 27.8249 16.5087 27.7574L17.0607 27.7311L17.0869 28.253L17.1846 30.2128L16.8016 30.2316L16.7978 30.2354Z" fill="var(--fill-0, #0066AC)"/>
<path id="Vector_17" d="M28.1779 23.4772L26.4883 22.4822C26.3381 22.3921 26.1129 22.2307 25.9514 22.3583L26.233 21.8815L26.6836 22.1481L28.3731 23.143L28.1779 23.4772Z" fill="var(--fill-0, #0066AC)"/>
<path id="Vector_18" d="M19.5537 27.9564C19.5912 27.671 19.6438 27.3406 19.396 27.3031V27.288L19.9404 27.1566L19.5687 29.9275C19.2721 29.8186 19.1782 29.8073 19.0055 29.5445L18.0894 28.1666C17.9768 27.9939 17.8679 27.7949 17.6764 27.7086V27.6935L18.2096 27.5659L18.2171 27.6109C18.2358 27.6935 18.3485 27.855 18.3973 27.9301L19.3622 29.3943L19.5499 27.9526L19.5537 27.9564Z" fill="var(--fill-0, #0066AC)"/>
<path id="Vector_19" d="M21.5398 28.6284L20.9128 27.3444C20.8377 27.1904 20.7364 26.9314 20.5336 26.9501L20.5261 26.9389L21.6149 26.4057C21.6712 26.3794 21.7351 26.3607 21.7689 26.3119H21.7801L21.9754 26.7061H21.9641C21.7989 26.6423 21.6525 26.6948 21.4948 26.7737C21.3746 26.83 21.2582 26.8938 21.1606 26.9652L21.4685 27.5997L21.874 27.4007C21.9303 27.3744 21.9829 27.3481 22.0129 27.3068H22.0242L22.2006 27.6635H22.1931C22.0918 27.5959 21.9491 27.671 21.844 27.7198L21.5924 27.8437L21.9866 28.6509L22.4409 28.4782C22.6737 28.3881 22.8765 28.2042 22.9703 27.9714L22.9816 27.9639L23.0454 28.4857L21.7764 29.1052L21.5473 28.6247L21.5398 28.6284Z" fill="var(--fill-0, #0066AC)"/>
<path id="Vector_20" d="M24.2994 27.6147L23.098 26.0753C22.9891 25.9364 22.8427 25.7036 22.6474 25.7675L22.6399 25.7562L23.3495 25.2005C23.7513 24.8851 24.1305 24.9264 24.3445 25.2005C24.551 25.4633 24.4796 25.8501 24.2807 26.0979L25.1329 26.3006C25.3807 26.3569 25.6886 26.3644 25.9402 26.3419L25.6661 26.5559C25.5046 26.6798 25.3807 26.7174 25.2043 26.6761L24.4872 26.5109L23.8864 26.3044C24.0967 26.0828 24.2882 25.7562 24.0704 25.4746C23.9014 25.2606 23.6199 25.2794 23.4246 25.4446C23.357 25.5009 23.3007 25.561 23.2406 25.6248L24.6111 27.3782L24.3069 27.6147H24.2994Z" fill="var(--fill-0, #0066AC)"/>
<path id="Vector_21" d="M25.8726 23.3458C25.6623 23.3645 25.4446 23.4884 25.3132 23.6536C25.1742 23.8188 25.0654 24.0817 25.2681 24.2506C25.6698 24.581 26.4921 23.5673 27.0327 24.0141C27.3481 24.2694 27.3706 24.8401 26.9952 25.2944C26.8488 25.4746 26.6761 25.6285 26.4771 25.7449L26.0415 25.5309C26.3344 25.4784 26.6235 25.3169 26.8112 25.0916C26.9501 24.9227 27.0553 24.5885 26.8488 24.4233C26.3907 24.0479 25.6473 25.1217 25.0241 24.6111C24.6561 24.3069 24.8251 23.8151 25.1217 23.4584C25.2418 23.312 25.3845 23.1806 25.5422 23.0754L25.8726 23.3495V23.3458Z" fill="var(--fill-0, #0066AC)"/>
<path id="Vector_22" d="M30.0927 18.386L29.0189 18.2321L27.9263 18.7089C27.7461 18.784 27.6147 18.8403 27.487 19.0055L27.5696 18.4461L28.7523 17.9392L28.1216 17.3723C28.039 17.2934 27.87 17.1846 27.7386 17.376H27.7236L27.8174 16.719L29.0752 17.8416L30.149 17.9955L30.0927 18.3785V18.386Z" fill="var(--fill-0, #0066AC)"/>
<path id="Vector_23" d="M26.6272 21.2582L26.9764 21.5286V21.5173C26.9201 21.3709 26.9464 21.1944 27.0027 21.0442L27.1266 20.7326L29.1954 21.5473L29.3343 21.1869L27.2655 20.3722L27.3894 20.0568C27.4345 19.9404 27.5096 19.8052 27.6485 19.809V19.7977L27.2993 19.5387L26.6235 21.2582H26.6272Z" fill="var(--fill-0, #0066AC)"/>
</g>
<path id="Vector_24" d="M15.9944 0C7.16367 0 0 7.16367 0 15.9906C0 24.8176 7.16367 32 15.9944 32C24.8251 32 32.0038 24.8363 32.0038 15.9906C32.0038 7.1449 24.8363 0 15.9944 0ZM15.9944 31.5269C7.42649 31.5269 0.473073 24.5735 0.473073 15.9906C0.473073 7.40772 7.42649 0.473073 15.9944 0.473073C24.5622 0.473073 31.5269 7.42649 31.5269 15.9906C31.5269 24.5547 24.5735 31.5269 15.9944 31.5269Z" fill="var(--fill-0, #0066AC)"/>
<path id="Vector_25" d="M26.3982 15.9944C26.3982 21.7426 21.7426 26.3982 15.9944 26.3982C10.2462 26.3982 5.60178 21.7426 5.60178 15.9944C5.60178 10.2462 10.2537 5.60178 15.9944 5.60178C21.7351 5.60178 26.3982 10.2574 26.3982 15.9944Z" fill="var(--fill-0, #0066AC)"/>
<path id="Vector_26" d="M3.85592 13.3587C3.85592 13.5952 3.66444 13.7904 3.42415 13.7904C3.18386 13.7904 2.99237 13.599 2.99237 13.3587C2.99237 13.1184 3.18386 12.9269 3.42415 12.9269C3.66444 12.9269 3.85592 13.1221 3.85592 13.3587Z" fill="var(--fill-0, #0066AC)"/>
<path id="Vector_27" d="M29.0752 13.3587C29.0752 13.5952 28.8837 13.7904 28.6434 13.7904C28.4031 13.7904 28.2117 13.599 28.2117 13.3587C28.2117 13.1184 28.4031 12.9269 28.6434 12.9269C28.8837 12.9269 29.0752 13.1221 29.0752 13.3587Z" fill="var(--fill-0, #0066AC)"/>
<g id="Group_5">
<path id="Vector_28" d="M14.1471 7.11862L9.78435 13.5164C9.78435 13.5164 8.72557 14.8342 9.60038 16.5575L11.8756 20.0643C11.8756 20.0643 12.2661 20.7551 13.0658 20.7551H14.7741C14.7741 20.7551 14.5038 20.65 14.3349 20.406L11.7968 16.5012C11.7968 16.5012 11.3838 15.8367 11.4138 15.1646C11.4138 15.1646 11.4401 14.5751 11.7855 14.0157L14.1621 10.4489L16.9781 14.8117C16.9781 14.8117 17.2972 15.2885 16.9593 15.6715C16.9593 15.6715 16.7528 15.8855 16.2384 15.7203L17.2221 17.2371C17.2221 17.2371 17.3986 17.4812 17.6914 17.4812C17.6914 17.4812 17.8979 17.4812 18.0932 17.2484L18.8215 16.0657C18.8215 16.0657 19.3547 15.3636 18.7953 14.271L14.1471 7.11862Z" fill="var(--fill-0, #BB8A0B)"/>
<path id="Vector_29" d="M19.8916 20.1769L22.0542 16.918C22.0542 16.918 23.113 15.6001 22.2382 13.8768L18.3184 7.83574C18.3184 7.83574 17.928 7.14115 17.1282 7.14115H15.4199C15.4199 7.14115 15.6902 7.24627 15.8592 7.49032L19.9554 13.7266C19.9554 13.7266 20.5036 14.5601 20.4247 15.266C20.4247 15.266 20.3985 15.8554 20.0493 16.4149L18.6338 18.6225C18.3973 18.9267 18.1495 18.9342 18.1495 18.9342H17.2934C17.0118 18.9041 16.8053 18.5737 16.8053 18.5737L14.853 15.6189C14.853 15.6189 14.5338 15.1421 14.8718 14.7591C14.8718 14.7591 15.0783 14.5451 15.5926 14.7141L14.6089 13.1972C14.6089 13.1972 14.4325 12.9532 14.1434 12.9532C14.1434 12.9532 13.9369 12.9532 13.7416 13.186L13.0095 14.3649C13.0095 14.3649 12.4764 15.067 13.0358 16.1633L15.664 20.1995C15.664 20.1995 16.0244 20.7551 16.55 20.7551H18.9116C18.9116 20.7551 19.5011 20.7702 19.8841 20.1769H19.8916Z" fill="var(--fill-0, #BB8A0B)"/>
</g>
<g id="Group_6">
<path id="Vector_30" d="M13.3474 24.566H12.9982V22.3208L12.604 22.5874V22.2532C12.6904 22.2157 12.9419 22.0242 13.047 21.9378H13.3474V24.5698V24.566Z" fill="var(--fill-0, white)"/>
<path id="Vector_31" d="M15.6377 23.2632C15.6377 23.9503 15.6377 24.6261 14.9281 24.6261C14.5338 24.6261 14.271 24.3557 14.2823 23.939H14.6315C14.6315 24.1342 14.7066 24.3332 14.9318 24.3332C15.2697 24.3332 15.2923 23.9615 15.2923 23.2857H15.2848C15.2022 23.4697 15.037 23.5335 14.8342 23.5335C14.6315 23.5335 14.2297 23.4246 14.2297 22.7037C14.2297 22.1143 14.5827 21.8965 14.9318 21.8965C15.6527 21.8965 15.6414 22.5573 15.6414 23.2632H15.6377ZM14.5751 22.6925C14.5751 22.9553 14.624 23.2369 14.9281 23.2369C15.2322 23.2369 15.281 22.9515 15.281 22.6925C15.281 22.4559 15.2284 22.1481 14.9281 22.1481C14.6277 22.1481 14.5751 22.4559 14.5751 22.6925Z" fill="var(--fill-0, white)"/>
<path id="Vector_32" d="M16.0432 21.9378H17.4061V22.2419L16.704 24.5698H16.3097L17.0456 22.2419H16.0432V21.9378Z" fill="var(--fill-0, white)"/>
<path id="Vector_33" d="M18.4048 23.0341C18.7202 23.0604 18.9417 22.9365 18.9417 22.5986C18.9417 22.3583 18.8366 22.1856 18.5775 22.1856C18.2884 22.1856 18.2433 22.4034 18.2471 22.6136H17.8979C17.8716 22.1668 18.0856 21.8928 18.5775 21.8928C19.0243 21.8928 19.2909 22.1143 19.2909 22.5761C19.2909 23.0717 18.9229 23.1468 18.7727 23.1881V23.1956C19.1857 23.2519 19.3171 23.4697 19.3171 23.8677C19.3171 24.3783 19.0431 24.6261 18.5362 24.6261C17.8003 24.6261 17.8566 23.9953 17.8566 23.8451H18.2058C18.2096 24.1042 18.2509 24.3332 18.5662 24.3332C18.8816 24.3332 18.968 24.138 18.968 23.8601C18.968 23.4359 18.8103 23.3458 18.401 23.3458V23.0379L18.4048 23.0341Z" fill="var(--fill-0, white)"/>
</g>
</g>
<defs>
<clipPath id="clip0_585_867">
<rect width="32" height="32" fill="white"/>
</clipPath>
</defs>
</svg>
